<?xml version="1.0" encoding="UTF-8" standalone="no"?>
<svg width="165px" height="31px" viewBox="0 0 165 31" version="1.1" xmlns="http://www.w3.org/2000/svg" xmlns:xlink="http://www.w3.org/1999/xlink">
    <!-- Generator: Sketch 42 (36781) - http://www.bohemiancoding.com/sketch -->
    <title>ico-logo</title>
    <desc>Created with Sketch.</desc>
    <defs>
        <path d="M0,0 L43.1983146,0 L43.1983146,34 L0,34 L0,0 Z M0,7.08108108 L0,26.8648649 L43.1983146,26.8648649 L43.1983146,7.08108108 L0,7.08108108 Z" id="path-1"></path>
        <path d="M16.7424677,2.07718996 C15.7653592,2.07718996 14.480227,2.68378584 13.8590038,3.44810457 L2.78155082,17.07719 L13.8590038,30.7062754 C14.4743884,31.4634106 15.7638625,32.07719 16.7359615,32.07719 L26.4847057,32.07719 C27.4582209,32.07719 28.7404402,31.4705941 29.3616634,30.7062754 L40.4391164,17.07719 L29.3126006,3.44810457 C28.6944904,2.69096934 27.4060229,2.07718996 26.4242015,2.07718996 L16.7424677,2.07718996 Z" id="path-3"></path>
        <mask id="mask-4" maskContentUnits="userSpaceOnUse" maskUnits="objectBoundingBox" x="0" y="0" width="37.6575655" height="30" fill="white">
            <use xlink:href="#path-3"></use>
        </mask>
    </defs>
    <g id="Layouts" stroke="none" stroke-width="1" fill="none" fill-rule="evenodd">
        <g id="Homepage_Round_3_Part1" transform="translate(-60.000000, -28.000000)">
            <g id="Navigation" transform="translate(54.000000, 26.000000)">
                <g id="ico-logo">
                    <g id="Cherry-Logo" transform="translate(42.061517, 4.533333)" fill="#D91D47">
                        <polyline id="Fill-1" points="32.3596718 4.84151905 32.3596718 19.9860702 27.3552415 19.9860702 27.3552415 14.6107107 21.258124 14.6107107 21.258124 19.9860702 16.2536937 19.9860702 16.2536937 4.84151905 21.258124 4.84151905 21.258124 10.4003167 27.3552415 10.4003167 27.3552415 4.84151905 32.3596718 4.84151905"></polyline>
                        <path d="M98.039393,19.9860702 L92.6047299,19.9860702 L92.6047299,16.7436238 C92.6047299,16.3328917 92.5095757,15.9824893 92.2997834,15.6280798 C90.1882667,12.0338952 88.0769767,8.4394881 85.9645538,4.84508095 L91.682414,4.84508095 C92.8303812,6.79811786 93.9772157,8.75137738 95.125636,10.7044143 C95.2405007,10.8998738 95.4043018,10.8998738 95.5193931,10.7044143 C96.6666807,8.75137738 97.8146479,6.79811786 98.9614824,4.84508095 L104.679342,4.84508095 C102.567826,8.4394881 100.455856,12.0338952 98.3443395,15.6280798 C98.1354534,15.9824893 98.039393,16.3328917 98.039393,16.7436238 L98.039393,19.9860702" id="Fill-2"></path>
                        <polyline id="Fill-3" points="49.1068079 8.37670952 49.1068079 4.84151905 34.5969279 4.84151905 34.5969279 19.9860702 49.4679407 19.9860702 49.4679407 16.4275048 39.6013582 16.4275048 39.6013582 14.1372 45.8876513 14.1372 45.8876513 10.8232929 39.6013582 10.8232929 39.6013582 8.37670952 49.1068079 8.37670952"></polyline>
                        <path d="M8.77049691,16.102481 L14.255909,16.102481 L14.255909,19.9860702 L7.70612942,19.9860702 C3.45024534,19.9860702 0,16.5960274 0,12.4134607 C0,8.23178452 3.45024534,4.84151905 7.70612942,4.84151905 C10.3561734,4.84240952 11.6756447,4.84419048 14.255909,4.84508095 L14.255909,8.73045119 L8.77049691,8.73045119 C6.69998722,8.73045119 5.02096902,10.380281 5.02096902,12.4152417 C5.02096902,14.4493119 6.69998722,16.0991417 8.77049691,16.0991417" id="Fill-5"></path>
                        <path d="M60.9467069,12.354244 L56.1645295,12.354244 L56.1645295,8.31949643 L60.9467069,8.31949643 C62.0808541,8.31949643 63.0009044,9.22310714 63.0009044,10.3368702 C63.0009044,11.450856 62.0808541,12.354244 60.9467069,12.354244 Z M65.3874619,14.7810143 C69.7695386,11.6541071 67.5184625,4.84151905 62.1012443,4.84151905 L51.4453352,4.84151905 L51.4453352,19.9860702 L56.1645295,19.9860702 L56.1645295,16.0468262 L59.7758573,16.0468262 C60.736688,16.0468262 61.2919806,16.3631679 61.7706968,17.1808476 C62.1803129,17.8803167 62.5887962,18.5786726 62.9990919,19.2783643 C63.2976948,19.7890524 63.6441014,19.9860702 64.2444789,19.9860702 L68.1990415,19.9860702 C67.2608665,18.2512 66.3238244,16.5161071 65.3874619,14.7810143 L65.3874619,14.7810143 Z" id="Fill-7"></path>
                        <path d="M79.3968762,12.354244 L74.6137927,12.354244 L74.6137927,8.31949643 L79.3968762,8.31949643 C80.5314766,8.31949643 81.449941,9.22310714 81.449941,10.3368702 C81.449941,11.450856 80.5314766,12.354244 79.3968762,12.354244 Z M83.8371782,14.7810143 C88.2190283,11.6541071 85.9681788,4.84151905 80.5500543,4.84151905 L69.8950515,4.84151905 L69.8950515,19.9860702 L74.6137927,19.9860702 L74.6137927,16.0468262 L78.2260267,16.0468262 C79.1852715,16.0468262 79.7405641,16.3631679 80.2199599,17.1808476 C80.6300291,17.8803167 81.0389656,18.5786726 81.4481285,19.2783643 C81.746958,19.7890524 82.0947239,19.9860702 82.6946483,19.9860702 L86.6478515,19.9860702 C85.7105828,18.2512 84.7735407,16.5161071 83.8371782,14.7810143 L83.8371782,14.7810143 Z" id="Fill-8"></path>
                        <path d="M112.704012,18.4747095 C112.698801,18.5190107 112.695176,18.5642024 112.690872,18.6096167 C112.557203,20.2870512 113.186353,21.9357679 114.409537,23.1118643 C115.633401,24.288406 117.332583,24.8489607 119.034484,24.6819964 C120.73797,24.5150321 122.269952,23.6372452 123.231916,22.245431 C124.193879,20.8540619 124.477983,19.1147393 124.008102,17.4962988 C123.9859,17.4849452 123.963923,17.4738143 123.942627,17.4615702 C123.501066,17.2336083 123.066529,16.9893952 122.644226,16.7267048 C122.232797,16.4726964 121.83179,16.2015464 121.445056,15.9110286 C121.16118,15.6988726 120.883193,15.4753631 120.615856,15.242281 C120.261066,14.9326179 119.922136,14.6040321 119.605182,14.256969 C118.755591,16.4702476 116.760072,18.0633095 114.382124,18.4277369 C113.820034,18.5138905 113.2695,18.5294738 112.704012,18.4747095" id="Fill-10"></path>
                        <path d="M121.111564,4.10442738 C122.114987,6.69838452 123.07174,9.04211786 124.182325,11.5933321 C124.024867,11.634294 123.858574,11.5657274 123.778826,11.4248095 C122.462073,9.01429048 121.317731,6.70194643 120.237958,4.1783369 C120.122866,3.91052619 120.010494,3.64271548 119.898121,3.37401429 C119.842388,3.23843929 119.785749,3.10264167 119.730015,2.96617619 C119.716875,2.9323381 119.702602,2.89827738 119.688555,2.86443929 C119.670657,2.8201381 119.669751,2.772275 119.689235,2.72708333 C119.697391,2.70971905 119.708719,2.69480357 119.719367,2.68011071 C119.730922,2.66697619 119.74157,2.65317381 119.752218,2.64003929 C119.839669,2.5245 119.907863,2.40361786 119.961104,2.26960119 C120.068039,2.0009 120.099078,1.70971429 120.050368,1.42520714 C119.952948,0.85307619 119.547637,0.380010714 118.991891,0.187 C118.437051,-0.00623333333 117.818549,0.1122 117.378574,0.49555 C116.937014,0.879122619 116.741494,1.46795 116.86882,2.03228929 C116.877656,2.06968929 116.887398,2.10708929 116.898046,2.14359881 C116.901671,2.15228095 116.904163,2.16185357 116.906881,2.17053571 C116.910506,2.18188929 116.913905,2.19212976 116.915717,2.20259286 C116.927272,2.25579881 116.912319,2.3105631 116.876749,2.35219286 C116.862703,2.36799881 116.84843,2.38269167 116.834383,2.39916548 C116.780462,2.4601631 116.727221,2.5209381 116.673301,2.58260357 C116.567045,2.70615714 116.462602,2.83149167 116.359065,2.95749405 C116.151992,3.21150238 115.952847,3.47152143 115.761633,3.73666071 C115.374219,4.2740631 115.022829,4.82704881 114.702476,5.40363214 C114.621822,5.54788929 114.543886,5.69325952 114.469575,5.8401881 C114.430607,5.91320714 114.393452,5.98622619 114.357202,6.06102619 C114.338625,6.09753571 114.320953,6.13404524 114.302376,6.17144524 C114.298071,6.18101786 114.292634,6.19059048 114.289009,6.19927262 C114.279493,6.21752738 114.269751,6.23489167 114.255478,6.250475 C114.218323,6.29054643 114.164402,6.3123631 114.108669,6.30791071 C114.087372,6.30612976 114.066076,6.30279048 114.04478,6.30011905 C113.736888,6.2645 113.431488,6.25225595 113.121784,6.2645 C112.481079,6.28965595 111.84921,6.41922024 111.252684,6.6489631 C109.942048,7.15052381 108.864994,8.1028881 108.218172,9.32996429 C107.596045,10.5107357 107.415478,11.8629238 107.705699,13.1621286 C108.012684,14.5379143 108.827838,15.7509655 109.995063,16.5693131 C111.075743,17.3266631 112.385472,17.6955429 113.711287,17.6154 C115.147662,17.5285786 116.498851,16.918825 117.501595,15.9032369 C118.420286,14.9762512 118.987586,13.7683202 119.112419,12.4813595 C119.241557,11.1438643 118.884956,9.8045881 118.105144,8.70106548 C117.727246,8.16633452 117.258272,7.69927976 116.719292,7.32105 C116.466227,7.14273214 116.202514,6.98623095 115.922715,6.85065595 C115.855654,6.81748571 115.78746,6.78631905 115.719267,6.75582024 C115.695478,6.74624762 115.672369,6.73578452 115.652885,6.71842024 C115.608707,6.68102024 115.586504,6.62536548 115.591715,6.56792976 C115.594433,6.54366429 115.603269,6.52095714 115.613917,6.49847262 C115.623659,6.48110833 115.633401,6.46285357 115.642237,6.44459881 C115.659909,6.40875714 115.678486,6.3731381 115.69797,6.33751905 C115.772281,6.19482024 115.850217,6.05323452 115.929965,5.91320714 C116.249411,5.34797738 116.601708,4.80790357 116.990934,4.286975 C117.183055,4.0287369 117.383105,3.7785131 117.591992,3.53229643 C117.643194,3.47152143 117.696435,3.41052381 117.748543,3.34974881 C117.761004,3.33572381 117.77505,3.32014048 117.788417,3.30455714 C117.794534,3.29743333 117.800651,3.28964167 117.807901,3.28274048 C117.814018,3.27672976 117.818549,3.27049643 117.82376,3.26537619 C117.865447,3.22352381 117.924578,3.20437857 117.982124,3.21395119 C117.998889,3.21662262 118.014068,3.22196548 118.030834,3.22619524 C118.041482,3.22886667 118.051224,3.23131548 118.061872,3.2339869 C118.082262,3.23932976 118.103332,3.24355952 118.123722,3.2480119 C118.165409,3.25669405 118.206869,3.26359524 118.249462,3.26871548 C118.269852,3.2713869 118.291828,3.27405833 118.313124,3.27583929 C118.32196,3.27583929 118.330796,3.27672976 118.339632,3.27762024 C118.398083,3.28630238 118.4477,3.32192143 118.474207,3.37401429 C118.484855,3.39494048 118.493691,3.41675714 118.503433,3.43746071 C118.512268,3.4583869 118.52201,3.47842262 118.530846,3.49934881 C118.605157,3.66007976 118.679468,3.82192381 118.755591,3.98354524 C118.774169,4.02361667 118.792747,4.06346548 118.811324,4.1035369 C118.821066,4.1244631 118.830808,4.14449881 118.84055,4.1643119 C118.854824,4.19481071 118.869776,4.2226381 118.875214,4.25825714 C118.878612,4.286975 118.875214,4.3139119 118.863659,4.34173929 C118.85573,4.36266548 118.845082,4.38270119 118.836246,4.4027369 C118.82016,4.43746548 118.804301,4.47308452 118.789348,4.50870357 C118.75831,4.57927381 118.728178,4.6505119 118.698952,4.72085952 C118.583181,4.99913333 118.480324,5.28185952 118.390154,5.56970595 C118.216611,6.12358214 118.096309,6.68102024 118.032646,7.25938452 C119.645963,8.81415595 120.348744,11.0663929 119.90084,13.2431619 C121.892961,15.6746071 125.038259,17.2051131 127.900361,18.1539155 C128.54016,15.4352917 128.763999,12.2073155 127.723193,9.46976905 C127.190556,8.06971786 126.349801,6.86891071 125.150632,5.93235238 C123.963017,5.00714762 122.560173,4.44525714 121.111564,4.10442738" id="Fill-11"></path>
                    </g>
                    <g id="NX">
                        <g id="Bracket">
                            <mask id="mask-2" fill="white">
                                <use xlink:href="#path-1"></use>
                            </mask>
                            <g id="Mask"></g>
                            <g id="Polygon" mask="url(#mask-2)" fill-rule="nonzero" stroke-width="3.53398731" stroke="#D91E47">
                                <use mask="url(#mask-4)" xlink:href="#path-3"></use>
                            </g>
                        </g>
                        <path d="M21.2458233,24.9072432 L21.2458233,9.24324324 L18.6785756,9.24324324 L13.82933,18.9892432 L8.88500118,9.24324324 L6.31775351,9.24324324 L6.31775351,24.9072432 L8.88500118,24.9072432 L8.88500118,14.4352432 L12.8784975,22.0692432 L14.7801625,22.0692432 L18.6785756,14.4352432 L18.6785756,24.9072432 L21.2458233,24.9072432 Z M36.934559,24.9072432 L31.6812096,16.8772432 L36.5779968,9.24324324 L33.6304162,9.24324324 L30.2787317,14.8532432 L26.9508181,9.24324324 L24.0032374,9.24324324 L28.9000246,16.8772432 L23.6704461,24.9072432 L26.6180267,24.9072432 L30.2787317,18.9012432 L33.9632075,24.9072432 L36.934559,24.9072432 Z" id="MX" fill="#FFFFFF"></path>
                    </g>
                </g>
            </g>
        </g>
    </g>
</svg>